<svg width="30" height="30" viewBox="0 0 30 30" fill="none" xmlns="http://www.w3.org/2000/svg">
<path fill-rule="evenodd" clip-rule="evenodd" d="M15 1.02242C7.29278 1.02242 1.02184 7.29278 1.02184 15C1.02184 22.7072 7.29278 28.9782 15 28.9782C22.7072 28.9782 28.9782 22.7072 28.9782 15C28.9782 7.29278 22.7072 1.02242 15 1.02242ZM15 30C6.7291 30 0 23.2715 0 15C0 6.7291 6.7291 0 15 0C23.2709 0 30 6.7291 30 15C30 23.2715 23.2709 30 15 30Z" fill="#56FFE1"/>
<path fill-rule="evenodd" clip-rule="evenodd" d="M24.2973 3.22933C25.1705 3.9195 25.9632 4.70235 26.6622 5.56622L27.6502 4.57819C27.9113 4.31704 27.9113 3.89268 27.6502 3.63154L26.246 2.22731C26.1195 2.10082 25.9516 2.03146 25.7726 2.03146C25.5937 2.03146 25.4258 2.10082 25.2993 2.22731L24.2973 3.22933ZM26.5584 7.11559L26.2052 6.64285C25.364 5.51667 24.3597 4.52514 23.2207 3.69566L22.7374 3.34358L24.5765 1.50451C24.8959 1.18507 25.3209 1.00903 25.7726 1.00903C26.2244 1.00903 26.6493 1.18507 26.9688 1.50451L28.373 2.90873C29.0328 3.56859 29.0328 4.64172 28.373 5.30099L26.5584 7.11559Z" fill="#56FFE1"/>
<path fill-rule="evenodd" clip-rule="evenodd" d="M4.2273 2.03146C4.04835 2.03146 3.88047 2.10082 3.75398 2.22731L2.34975 3.63154C2.22326 3.75803 2.15389 3.92591 2.15389 4.10486C2.15389 4.28382 2.22326 4.45169 2.34975 4.57819L3.33778 5.56622C4.03669 4.70235 4.82886 3.92008 5.70264 3.22933L4.70062 2.22731C4.57413 2.10082 4.40625 2.03146 4.2273 2.03146ZM3.44154 7.11559L1.62694 5.30099C1.30751 4.98156 1.13147 4.55662 1.13147 4.10486C1.13147 3.65311 1.30751 3.22817 1.62694 2.90873L3.03117 1.50451C3.3506 1.18507 3.77555 1.00903 4.2273 1.00903C4.67905 1.00903 5.104 1.18507 5.42343 1.50451L7.26192 3.34358L6.77928 3.69508C5.64027 4.52514 4.63592 5.51667 3.79478 6.64285L3.44154 7.11559Z" fill="#56FFE1"/>
<path fill-rule="evenodd" clip-rule="evenodd" d="M14.9667 14.3104C14.4497 14.3104 14.0288 14.7313 14.0288 15.2483C14.0288 15.7654 14.4497 16.1862 14.9667 16.1862C15.4837 16.1862 15.9046 15.7654 15.9046 15.2483C15.9046 14.7313 15.4837 14.3104 14.9667 14.3104ZM14.9667 17.2086C13.886 17.2086 13.007 16.329 13.007 15.2483C13.007 14.1676 13.886 13.2886 14.9667 13.2886C16.0474 13.2886 16.927 14.1676 16.927 15.2483C16.927 16.329 16.0474 17.2086 14.9667 17.2086Z" fill="#56FFE1"/>
<path fill-rule="evenodd" clip-rule="evenodd" d="M15.4616 4.87934V13.3936C15.4616 13.7259 15.2325 13.9944 14.9504 13.9944C14.6683 13.9944 14.4392 13.7259 14.4392 13.3936V4.87934C14.4392 4.54776 14.6683 4.27852 14.9504 4.27852C15.2325 4.27852 15.4616 4.54776 15.4616 4.87934Z" fill="#56FFE1"/>
<path fill-rule="evenodd" clip-rule="evenodd" d="M23.6936 15.5112H16.4492C16.1665 15.5112 15.938 15.2821 15.938 15C15.938 14.7179 16.1665 14.4888 16.4492 14.4888H23.6936C23.9757 14.4888 24.2048 14.7179 24.2048 15C24.2048 15.2821 23.9757 15.5112 23.6936 15.5112Z" fill="#56FFE1"/>
<path d="M23.3787 27.3991L25.7103 29.7308C25.938 29.9584 26.307 29.9584 26.5347 29.7308C26.7623 29.5031 26.7623 29.1341 26.5347 28.9064L24.203 26.5748C23.9754 26.3471 23.6063 26.3471 23.3787 26.5748C23.151 26.8024 23.151 27.1715 23.3787 27.3991Z" fill="#56FFE1"/>
<path d="M6.71581 27.3991L4.38417 29.7308C4.15653 29.9584 3.78745 29.9584 3.55981 29.7308C3.33217 29.5031 3.33217 29.1341 3.55981 28.9064L5.89145 26.5748C6.11909 26.3471 6.48817 26.3471 6.71581 26.5748C6.94345 26.8024 6.94345 27.1715 6.71581 27.3991Z" fill="#56FFE1"/>
</svg>
