<svg width="36" height="41" viewBox="0 0 36 41" fill="none" xmlns="http://www.w3.org/2000/svg">
<path fill-rule="evenodd" clip-rule="evenodd" d="M3.01692 6.27013C1.91162 6.27013 1.0118 7.15547 1.0118 8.24368V34.9392C1.0118 36.0274 1.91162 36.9127 3.01692 36.9127C10.2008 36.9127 15.5686 36.9127 19.1203 36.9127C19.295 36.9127 18.5314 36.1891 18.5431 35.978C18.5508 35.8372 18.166 34.5113 17.3887 32.0002C17.3887 31.4319 17.4313 28.0656 19.1203 26.8859C20.8092 25.7062 23.7377 26.8859 24.1019 26.8859C24.1019 22.8091 24.1019 16.5951 24.1019 8.24368C24.1019 7.15547 23.2027 6.27013 22.0974 6.27013C21.0214 6.27013 20.2254 6.27013 19.7093 6.27013C19.382 6.27013 19.4533 9.73845 19.1203 9.8382C18.7872 9.93796 14.0279 9.8382 12.1941 9.8382C10.9241 9.8382 6.42229 9.26995 5.84511 9.26995C5.26793 9.26995 6.17639 6.27013 5.40003 6.27013H3.01692ZM3.01692 37.9095C1.35349 37.9095 0 36.5769 0 34.9392V8.24368C0 6.60597 1.35349 5.27341 3.01692 5.27341C4.10527 5.27663 4.89964 5.27892 5.40003 5.28027C6.63928 5.28362 5.26793 8.70169 5.84511 9.26995C6.42229 9.8382 11.2723 9.26995 12.1941 9.26995C13.3541 9.26995 17.9659 9.26995 18.5431 9.26995C19.1203 9.26995 18.7213 5.28208 19.7039 5.27964C20.2069 5.2784 21.0047 5.27632 22.0974 5.27341C23.7608 5.27341 25.1143 6.60597 25.1143 8.24368C25.1143 16.8844 25.1143 23.2879 25.1143 27.4541C21.1183 26.3176 18.7355 26.8859 17.9659 29.1589C17.9659 30.7966 17.9659 35.4097 19.6974 37.9095" fill="#56FFE1"/>
<path fill-rule="evenodd" clip-rule="evenodd" d="M25.0196 39.142C25.0837 39.142 25.1478 39.154 25.2078 39.1773C25.8346 39.4245 26.4285 39.5495 26.9745 39.5495C30.7914 39.5495 31.6941 33.3481 31.7034 33.285C31.7034 33.2816 31.704 33.2776 31.7051 33.2737C32.1005 30.8381 31.8737 29.11 31.031 28.1366C30.4815 27.5019 29.6434 27.1797 28.5416 27.1797C26.8909 27.1797 25.2453 27.9042 25.2291 27.9116C25.0964 27.9707 24.9434 27.9713 24.8107 27.9116C24.7945 27.9042 23.149 27.1797 21.4983 27.1797C20.3958 27.1797 19.5584 27.5019 19.0089 28.1366C18.1656 29.1095 17.9394 30.8381 18.3353 33.2737C18.3359 33.2776 18.3365 33.2816 18.337 33.285C18.3457 33.3475 19.2571 39.5495 23.0653 39.5495C23.6113 39.5495 24.2058 39.4245 24.832 39.1773C24.8921 39.154 24.9561 39.142 25.0196 39.142ZM26.9745 40.5456C26.9745 40.5456 26.9751 40.5456 26.9745 40.5456C26.3564 40.5456 25.6996 40.4212 25.0196 40.174C24.3403 40.4212 23.6835 40.5456 23.0653 40.5456C18.404 40.5456 17.3864 33.7942 17.3345 33.426C16.8912 30.6915 17.1954 28.6941 18.2383 27.49C18.9893 26.6228 20.0859 26.1835 21.4983 26.1835C23.0237 26.1835 24.4869 26.7046 25.0196 26.9172C25.5529 26.7046 27.0161 26.1835 28.5416 26.1835C29.9534 26.1835 31.05 26.6228 31.8009 27.49C32.8445 28.6947 33.1486 30.6921 32.7054 33.426C32.6534 33.7942 31.6359 40.5456 26.9745 40.5456Z" fill="#56FFE1"/>
<path fill-rule="evenodd" clip-rule="evenodd" d="M25.0197 27.9559C24.7444 27.9559 24.5187 27.7388 24.5141 27.466C24.4691 24.8452 24.9048 23.3655 25.8451 22.9421C26.5475 22.6251 27.2805 23.0206 27.6026 23.3041C27.8109 23.4871 27.8288 23.8025 27.6424 24.0076C27.4571 24.2122 27.1391 24.2304 26.9307 24.0491C26.9209 24.0411 26.5308 23.7269 26.2641 23.8491C26.1319 23.9099 25.4734 24.3696 25.5259 27.4495C25.5305 27.7246 25.3083 27.9513 25.0284 27.9559C25.0255 27.9559 25.0226 27.9559 25.0197 27.9559Z" fill="#56FFE1"/>
<path fill-rule="evenodd" clip-rule="evenodd" d="M17.6652 21.1994C19.4481 23.7207 23.1155 24.127 24.5435 24.1873C23.3903 21.0448 21.3453 19.4531 18.4577 19.4531C17.5371 19.4531 16.6759 19.6191 15.9874 19.8106C17.0702 20.2743 17.566 21.0312 17.6652 21.1994ZM24.981 25.1937C23.6333 25.1937 19.0608 24.9453 16.8202 21.7483C16.8093 21.7324 16.7989 21.7165 16.7902 21.6995C16.7637 21.6534 16.0797 20.4817 14.1819 20.4408C13.9505 20.4357 13.7519 20.2765 13.7 20.0544C13.648 19.8322 13.7554 19.6037 13.9609 19.4997C14.0451 19.4571 16.0428 18.4564 18.4577 18.4564C20.9171 18.4564 24.1758 19.5128 25.7307 24.5458C25.7763 24.693 25.7504 24.8521 25.6603 24.9777C25.5703 25.1033 25.4266 25.1812 25.2707 25.1885C25.2661 25.1885 25.1616 25.1937 24.981 25.1937Z" fill="#56FFE1"/>
<path fill-rule="evenodd" clip-rule="evenodd" d="M19.9808 35.0295C19.7707 35.0301 19.575 34.9006 19.5023 34.6943C17.7835 29.8044 20.2399 28.3935 20.3456 28.3355C20.5897 28.202 20.8979 28.2889 21.0336 28.5293C21.168 28.7679 21.0826 29.068 20.8431 29.2032C20.7554 29.2561 19.044 30.3443 20.4587 34.3687C20.5505 34.6284 20.4102 34.9125 20.1464 35.0023C20.0916 35.021 20.0356 35.0295 19.9808 35.0295Z" fill="#56FFE1"/>
<path fill-rule="evenodd" clip-rule="evenodd" d="M25.2471 25.1891C25.0652 25.1891 24.8892 25.0925 24.7986 24.9231C23.6771 22.8291 19.5745 21.2073 19.533 21.1914C19.2732 21.0897 19.1463 20.8004 19.2496 20.5441C19.3523 20.2884 19.6467 20.1634 19.9064 20.2651C20.0894 20.3362 24.4003 22.0421 25.6944 24.4583C25.8248 24.7015 25.7296 25.0032 25.4825 25.1317C25.4075 25.1709 25.3267 25.1891 25.2471 25.1891Z" fill="#56FFE1"/>
<path fill-rule="evenodd" clip-rule="evenodd" d="M6.36803 8.83521H18.7462V5.2336C18.7462 4.3511 18.0167 3.6334 17.1203 3.6334H15.2352C14.9559 3.6334 14.7291 3.41007 14.7291 3.13504C14.7291 1.95591 13.7548 0.99669 12.5571 0.99669C11.3595 0.99669 10.3852 1.95591 10.3852 3.13504C10.3852 3.41007 10.1584 3.6334 9.87901 3.6334H7.99394C7.09758 3.6334 6.36803 4.3511 6.36803 5.2336V8.83521ZM19.2524 9.83193H5.86184C5.58248 9.83193 5.35565 9.60861 5.35565 9.33357V5.2336C5.35565 3.8016 6.53945 2.63668 7.99394 2.63668H9.41323C9.65622 1.14387 10.9733 -3.05176e-05 12.5571 -3.05176e-05C14.1409 -3.05176e-05 15.458 1.14387 15.701 2.63668H17.1203C18.5748 2.63668 19.758 3.8016 19.758 5.2336V9.33357C19.758 9.60861 19.5318 9.83193 19.2524 9.83193Z" fill="#56FFE1"/>
<path fill-rule="evenodd" clip-rule="evenodd" d="M20.5909 14.1797H4.52276C4.24341 14.1797 4.01715 13.9569 4.01715 13.6813C4.01715 13.4063 4.24341 13.183 4.52276 13.183H20.5909C20.8708 13.183 21.0971 13.4063 21.0971 13.6813C21.0971 13.9569 20.8708 14.1797 20.5909 14.1797Z" fill="#56FFE1"/>
<path fill-rule="evenodd" clip-rule="evenodd" d="M12.0509 19.4531H4.52276C4.24341 19.4531 4.01715 19.2298 4.01715 18.9548C4.01715 18.6797 4.24341 18.4564 4.52276 18.4564H12.0509C12.3303 18.4564 12.5571 18.6797 12.5571 18.9548C12.5571 19.2298 12.3303 19.4531 12.0509 19.4531Z" fill="#56FFE1"/>
<path fill-rule="evenodd" clip-rule="evenodd" d="M16.8692 24.726H4.52276C4.24341 24.726 4.01715 24.5032 4.01715 24.2276C4.01715 23.9526 4.24341 23.7298 4.52276 23.7298H16.8692C17.1486 23.7298 17.3754 23.9526 17.3754 24.2276C17.3754 24.5032 17.1486 24.726 16.8692 24.726Z" fill="#56FFE1"/>
<path fill-rule="evenodd" clip-rule="evenodd" d="M15.3576 29.9993H4.52276C4.24341 29.9993 4.01715 29.776 4.01715 29.501C4.01715 29.226 4.24341 29.0026 4.52276 29.0026H15.3576C15.6369 29.0026 15.8638 29.226 15.8638 29.501C15.8638 29.776 15.6369 29.9993 15.3576 29.9993Z" fill="#56FFE1"/>
<path fill-rule="evenodd" clip-rule="evenodd" d="M26.4113 35.5097C26.2664 35.5097 26.1267 35.4483 26.0303 35.3392L22.102 30.9148C21.9179 30.7074 21.9398 30.3926 22.1499 30.2119C22.3606 30.0306 22.6804 30.0516 22.8645 30.259L26.2952 34.1237C28.4031 30.1607 31.2446 28.4065 35.2508 26.2449C35.4961 26.1125 35.8031 26.2005 35.9376 26.4421C36.0721 26.6836 35.9821 26.9864 35.7373 27.1188C31.6844 29.3055 28.8781 31.0512 26.8684 35.225C26.7957 35.3767 26.6496 35.4819 26.4805 35.5052C26.4574 35.508 26.4343 35.5097 26.4113 35.5097Z" fill="#56FFE1"/>
</svg>
