<svg width="36" height="16" viewBox="0 0 36 16" fill="none" xmlns="http://www.w3.org/2000/svg">
<path fill-rule="evenodd" clip-rule="evenodd" d="M9.61989 9.18133H25.8237V5.94057H9.61989V9.18133ZM26.3298 10.1781H9.11428C8.83435 10.1781 8.60809 9.95473 8.60809 9.67969V5.44221C8.60809 5.16717 8.83435 4.94385 9.11428 4.94385H26.3298C26.6092 4.94385 26.836 5.16717 26.836 5.44221V9.67969C26.836 9.95473 26.6092 10.1781 26.3298 10.1781Z" fill="#56FFE1"/>
<path fill-rule="evenodd" clip-rule="evenodd" d="M4.49846 0.99672C4.15792 0.99672 3.88145 1.26948 3.88145 1.60419V13.5177C3.88145 13.8524 4.15792 14.1251 4.49846 14.1251H7.99098C8.33094 14.1251 8.60798 13.8524 8.60798 13.5177V1.60419C8.60798 1.26948 8.33094 0.99672 7.99098 0.99672H4.49846ZM7.99098 15.1213H4.49846C3.59979 15.1213 2.86908 14.4019 2.86908 13.5177V1.60419C2.86908 0.719412 3.59979 0 4.49846 0H7.99098C8.88907 0 9.61978 0.719412 9.61978 1.60419V13.5177C9.61978 14.4019 8.88907 15.1213 7.99098 15.1213Z" fill="#56FFE1"/>
<path fill-rule="evenodd" clip-rule="evenodd" d="M27.453 0.99672C27.1125 0.99672 26.836 1.26948 26.836 1.60419V13.5177C26.836 13.8524 27.1125 14.1251 27.453 14.1251H30.9455C31.286 14.1251 31.5625 13.8524 31.5625 13.5177V1.60419C31.5625 1.26948 31.286 0.99672 30.9455 0.99672H27.453ZM30.9455 15.1213H27.453C26.5543 15.1213 25.8236 14.4019 25.8236 13.5177V1.60419C25.8236 0.719412 26.5543 0 27.453 0H30.9455C31.8436 0 32.5749 0.719412 32.5749 1.60419V13.5177C32.5749 14.4019 31.8436 15.1213 30.9455 15.1213Z" fill="#56FFE1"/>
<path fill-rule="evenodd" clip-rule="evenodd" d="M2.39357 5.23421C1.63169 5.23421 1.01237 5.84452 1.01237 6.59461V8.52725C1.01237 9.27735 1.63169 9.88765 2.39357 9.88765H2.86916V5.23421H2.39357ZM3.37535 10.8844H2.39357C1.07356 10.8844 0 9.82685 0 8.52725V6.59461C0 5.29501 1.07356 4.23749 2.39357 4.23749H3.37535C3.65471 4.23749 3.88154 4.46081 3.88154 4.73585V10.386C3.88154 10.6611 3.65471 10.8844 3.37535 10.8844Z" fill="#56FFE1"/>
<path fill-rule="evenodd" clip-rule="evenodd" d="M32.5749 9.88765H33.0499C33.8118 9.88765 34.4317 9.27735 34.4317 8.52725V6.59461C34.4317 5.84452 33.8118 5.23421 33.0499 5.23421H32.5749V9.88765ZM33.0499 10.8844H32.0687C31.7888 10.8844 31.5625 10.6611 31.5625 10.386V4.73585C31.5625 4.46081 31.7888 4.23749 32.0687 4.23749H33.0499C34.3699 4.23749 35.444 5.29501 35.444 6.59461V8.52725C35.444 9.82685 34.3699 10.8844 33.0499 10.8844Z" fill="#56FFE1"/>
</svg>
