<svg width="26" height="35" viewBox="0 0 26 35" fill="none" xmlns="http://www.w3.org/2000/svg">
<path fill-rule="evenodd" clip-rule="evenodd" d="M21.3409 29.8635C22.4595 29.8635 23.4551 30.5222 23.8782 31.5427L24.853 33.8942C24.8536 33.8965 24.8542 33.8976 24.8548 33.8993C24.8588 33.8987 24.8628 33.8982 24.8657 33.897C24.8657 33.8953 24.8657 33.8936 24.8657 33.8919V21.117C24.8657 20.6828 24.4963 20.3333 24.0507 20.3595C23.9613 20.3651 23.8684 20.3703 23.7725 20.3754C23.0072 20.418 22.0543 20.4708 21.4061 20.7692C21.3126 20.8118 21.2226 20.8629 21.1267 20.9169C20.8716 21.0613 20.5819 21.2244 20.2148 21.2244C19.7588 21.2244 19.3196 20.9709 18.8336 20.4265C18.2264 19.7469 16.8285 19.0155 15.1933 19.0155C13.9264 19.0155 12.7369 19.4679 11.7545 20.3231C11.5178 20.5294 11.2269 20.6385 10.9147 20.6385C10.0784 20.6385 9.2351 19.8492 9.10928 18.9485C8.69775 16.0066 8.17713 10.6588 9.31417 7.89762C9.67318 7.02591 10.532 6.46277 11.5017 6.46277C11.6875 6.46277 11.874 6.48437 12.0552 6.52642L12.835 6.70883L15.034 6.50255L16.5168 7.17707C16.6888 7.25492 16.9029 7.19753 17.0115 7.04637C17.1379 6.86964 17.0951 6.62416 16.9168 6.49914L16.1105 5.93145L17.3491 5.08703C17.7745 4.79721 17.9044 4.24373 17.6515 3.79936L16.4429 1.67408C16.305 1.53884 15.6989 0.996152 14.8418 0.996152C14.4453 0.996152 14.0367 1.11208 13.628 1.33995L8.59328 4.14884C8.18752 4.375 7.86545 4.71311 7.66113 5.12567L2.459 15.6617C2.34068 15.9009 2.25641 16.1549 2.20908 16.4169L1.04318 22.8558C0.892533 23.6877 1.30349 24.5083 2.06594 24.897L7.07183 27.453C7.118 27.4808 11.7626 30.2994 17.3393 30.2994C18.5052 30.2994 19.6451 30.1755 20.7279 29.9317C20.9288 29.8863 21.1354 29.8635 21.3409 29.8635ZM24.853 34.8954C24.4346 34.8954 24.0756 34.6562 23.9157 34.2709L22.9408 31.9189C22.6742 31.2757 22.0462 30.8597 21.3409 30.8597C21.211 30.8597 21.0812 30.8745 20.9536 30.9029C19.7975 31.1637 18.5814 31.2955 17.3393 31.2955C11.5854 31.2955 6.931 28.5384 6.55294 28.3088L1.60016 25.7823C0.441755 25.1913 -0.182177 23.9452 0.0469638 22.6808L1.21287 16.2419C1.27636 15.8896 1.38949 15.548 1.54821 15.2258L6.75092 4.69038C7.0447 4.09485 7.50933 3.60786 8.09459 3.28168L13.1293 0.472789C13.6921 0.159112 14.2681 0 14.8418 0C16.2865 0 17.1967 1.00524 17.2348 1.04786L17.2695 1.08707L18.5352 3.31236C19.0443 4.20737 18.7822 5.32228 17.9251 5.90645L17.8126 5.98316C18.1704 6.45254 18.1993 7.11683 17.8386 7.62031C17.5742 7.98968 17.1425 8.20959 16.6842 8.20959C16.4787 8.20959 16.2796 8.1664 16.0926 8.08173L14.8574 7.5203L12.7646 7.71634L11.8214 7.49643C11.717 7.47143 11.609 7.45949 11.5017 7.45949C10.9459 7.45949 10.4558 7.77828 10.2521 8.2721C9.20335 10.8185 9.71416 15.9691 10.1118 18.8127C10.1713 19.24 10.6146 19.6423 10.9147 19.6418C10.9799 19.6418 11.0319 19.6219 11.0838 19.5764C12.2543 18.5575 13.6753 18.0188 15.1933 18.0188C17.1534 18.0188 18.8157 18.8973 19.5938 19.7685C19.8546 20.0606 20.0809 20.2276 20.2148 20.2276C20.3123 20.2276 20.4566 20.1464 20.6229 20.0526C20.7279 19.9935 20.8462 19.9265 20.9778 19.8662C21.8026 19.4866 22.8635 19.4281 23.716 19.3804C23.8095 19.3752 23.9007 19.3701 23.9884 19.365C25.0169 19.2991 25.8781 20.1128 25.8781 21.117V33.8919C25.8781 34.4551 25.4279 34.8954 24.853 34.8954Z" fill="#56FFE1"/>
</svg>
