<svg width="200" height="200" viewBox="0 0 200 200" fill="none" xmlns="http://www.w3.org/2000/svg">
<rect width="200" height="200" fill="#343A47"/>
<path d="M130.345 134.531H112.017L126.502 66H166.908L163.767 80.8594H141.689L138.97 93.9375H159.408L156.174 108.891H135.642L130.345 134.531Z" fill="#FF565C"/>
<mask id="mask0" mask-type="alpha" maskUnits="userSpaceOnUse" x="34" y="74" width="85" height="61">
<path fill-rule="evenodd" clip-rule="evenodd" d="M98.7116 74.5129L118.651 74.5312L106 134.531H86L98.7116 74.5129ZM69.5261 89.5244L89.5086 89.5312L80 134.531H60L69.5261 89.5244ZM60.3899 104.53L40.3653 104.572L34 134.531H54L60.3899 104.53Z" fill="#C4C4C4"/>
</mask>
<g mask="url(#mask0)">
<rect x="34" y="74.5129" width="84.6514" height="60.0183" fill="url(#paint0_linear)"/>
</g>
<defs>
<linearGradient id="paint0_linear" x1="118.651" y1="104.522" x2="34" y2="104.522" gradientUnits="userSpaceOnUse">
<stop offset="0.0939227" stop-color="#FF565C"/>
<stop offset="1" stop-color="#8256FF" stop-opacity="0.8"/>
</linearGradient>
</defs>
</svg>
