<svg width="198" height="81" viewBox="0 0 198 81" fill="none" xmlns="http://www.w3.org/2000/svg">
<path d="M152.608 71.1016C153.639 71.1016 154.446 71.5052 155.03 72.3125C155.613 73.1146 155.905 74.2161 155.905 75.6172C155.905 77.0599 155.603 78.1771 154.998 78.9688C154.399 79.7604 153.582 80.1562 152.545 80.1562C151.519 80.1562 150.715 79.7839 150.131 79.0391H149.967L149.569 80H147.748V67.8438H150.131V70.6719C150.131 71.0312 150.1 71.6068 150.037 72.3984H150.131C150.689 71.5339 151.514 71.1016 152.608 71.1016ZM151.842 73.0078C151.254 73.0078 150.824 73.1901 150.553 73.5547C150.282 73.9141 150.142 74.5104 150.131 75.3438V75.6016C150.131 76.5391 150.269 77.2109 150.545 77.6172C150.827 78.0234 151.269 78.2266 151.873 78.2266C152.363 78.2266 152.751 78.0026 153.037 77.5547C153.329 77.1016 153.475 76.4453 153.475 75.5859C153.475 74.7266 153.329 74.0833 153.037 73.6562C152.746 73.224 152.347 73.0078 151.842 73.0078Z" fill="#874CFF"/>
<path d="M164.691 72.7969C164.185 72.7969 163.79 72.9583 163.503 73.2812C163.217 73.599 163.053 74.0521 163.011 74.6406H166.355C166.344 74.0521 166.191 73.599 165.894 73.2812C165.597 72.9583 165.196 72.7969 164.691 72.7969ZM165.027 80.1562C163.62 80.1562 162.521 79.7682 161.73 78.9922C160.938 78.2161 160.542 77.1172 160.542 75.6953C160.542 74.2318 160.907 73.1016 161.636 72.3047C162.37 71.5026 163.383 71.1016 164.675 71.1016C165.909 71.1016 166.87 71.4531 167.558 72.1562C168.245 72.8594 168.589 73.8307 168.589 75.0703V76.2266H162.956C162.982 76.9036 163.183 77.4323 163.558 77.8125C163.933 78.1927 164.459 78.3828 165.136 78.3828C165.662 78.3828 166.159 78.3281 166.628 78.2188C167.097 78.1094 167.586 77.9349 168.097 77.6953V79.5391C167.68 79.7474 167.235 79.901 166.761 80C166.287 80.1042 165.709 80.1562 165.027 80.1562Z" fill="#874CFF"/>
<path d="M177.406 78.2578C177.823 78.2578 178.323 78.1667 178.906 77.9844V79.7578C178.312 80.0234 177.583 80.1562 176.719 80.1562C175.766 80.1562 175.07 79.9167 174.633 79.4375C174.2 78.9531 173.984 78.2292 173.984 77.2656V73.0547H172.844V72.0469L174.156 71.25L174.844 69.4062H176.367V71.2656H178.812V73.0547H176.367V77.2656C176.367 77.6042 176.461 77.8542 176.648 78.0156C176.841 78.1771 177.094 78.2578 177.406 78.2578Z" fill="#874CFF"/>
<path d="M189.427 80L188.966 78.8125H188.903C188.502 79.3177 188.088 79.6693 187.661 79.8672C187.239 80.0599 186.687 80.1562 186.005 80.1562C185.166 80.1562 184.505 79.9167 184.02 79.4375C183.541 78.9583 183.302 78.276 183.302 77.3906C183.302 76.4635 183.624 75.7812 184.27 75.3438C184.921 74.901 185.9 74.6562 187.208 74.6094L188.723 74.5625V74.1797C188.723 73.2943 188.27 72.8516 187.364 72.8516C186.666 72.8516 185.846 73.0625 184.903 73.4844L184.114 71.875C185.119 71.349 186.234 71.0859 187.458 71.0859C188.63 71.0859 189.528 71.3411 190.153 71.8516C190.778 72.362 191.091 73.138 191.091 74.1797V80H189.427ZM188.723 75.9531L187.802 75.9844C187.109 76.0052 186.593 76.1302 186.255 76.3594C185.916 76.5885 185.747 76.9375 185.747 77.4062C185.747 78.0781 186.132 78.4141 186.903 78.4141C187.455 78.4141 187.895 78.2552 188.223 77.9375C188.557 77.6198 188.723 77.1979 188.723 76.6719V75.9531Z" fill="#874CFF"/>
<path d="M13.9375 23.1719H1.01562V0.328125H13.9375V3.48438H4.75V9.70312H13.3594V12.8281H4.75V20H13.9375V23.1719Z" fill="#FF565C"/>
<path d="M37.9219 23.1719H33.3438L22.1094 4.96875H21.9844L22.0625 5.98438C22.2083 7.92188 22.2812 9.69271 22.2812 11.2969V23.1719H18.8906V0.328125H23.4219L34.625 18.4375H34.7188C34.6979 18.1979 34.6562 17.3281 34.5938 15.8281C34.5312 14.3177 34.5 13.1406 34.5 12.2969V0.328125H37.9219V23.1719Z" fill="#FF565C"/>
<path d="M53.2969 10.7812H61.7031V22.25C60.3281 22.6979 59.0052 23.0156 57.7344 23.2031C56.474 23.3906 55.1094 23.4844 53.6406 23.4844C50.1823 23.4844 47.5156 22.4635 45.6406 20.4219C43.7656 18.3698 42.8281 15.4792 42.8281 11.75C42.8281 8.07292 43.8854 5.19792 46 3.125C48.1146 1.04167 51.026 0 54.7344 0C57.1198 0 59.3802 0.458333 61.5156 1.375L60.2031 4.48438C58.349 3.63021 56.4948 3.20312 54.6406 3.20312C52.2031 3.20312 50.276 3.96875 48.8594 5.5C47.4427 7.03125 46.7344 9.125 46.7344 11.7812C46.7344 14.5729 47.3698 16.6979 48.6406 18.1562C49.9219 19.6042 51.7604 20.3281 54.1562 20.3281C55.3646 20.3281 56.6562 20.1771 58.0312 19.875V13.9844H53.2969V10.7812Z" fill="#FF565C"/>
<path d="M81.375 23.1719L79.0938 16.8281H70.3594L68.125 23.1719H64.1875L72.7344 0.234375H76.7969L85.3438 23.1719H81.375ZM78.1094 13.6094L75.9688 7.39062C75.8125 6.97396 75.5938 6.31771 75.3125 5.42188C75.0417 4.52604 74.8542 3.86979 74.75 3.45312C74.4688 4.73438 74.0573 6.13542 73.5156 7.65625L71.4531 13.6094H78.1094Z" fill="#FF565C"/>
<path d="M97.7031 10.7812H106.109V22.25C104.734 22.6979 103.411 23.0156 102.141 23.2031C100.88 23.3906 99.5156 23.4844 98.0469 23.4844C94.5885 23.4844 91.9219 22.4635 90.0469 20.4219C88.1719 18.3698 87.2344 15.4792 87.2344 11.75C87.2344 8.07292 88.2917 5.19792 90.4062 3.125C92.5208 1.04167 95.4323 0 99.1406 0C101.526 0 103.786 0.458333 105.922 1.375L104.609 4.48438C102.755 3.63021 100.901 3.20312 99.0469 3.20312C96.6094 3.20312 94.6823 3.96875 93.2656 5.5C91.849 7.03125 91.1406 9.125 91.1406 11.7812C91.1406 14.5729 91.776 16.6979 93.0469 18.1562C94.3281 19.6042 96.1667 20.3281 98.5625 20.3281C99.7708 20.3281 101.062 20.1771 102.438 19.875V13.9844H97.7031V10.7812Z" fill="#FF565C"/>
<path d="M124.531 23.1719H111.609V0.328125H124.531V3.48438H115.344V9.70312H123.953V12.8281H115.344V20H124.531V23.1719Z" fill="#FF565C"/>
<path d="M41.2812 62.1719H33.6445L39.6797 33.6172H56.5156L55.207 39.8086H46.0078L44.875 45.2578H53.3906L52.043 51.4883H43.4883L41.2812 62.1719Z" fill="#FF565C"/>
<path d="M57.5789 62.1719L63.6141 33.6172H71.368L65.3328 62.1719H57.5789Z" fill="#FF565C"/>
<path d="M84.6383 62.1719H77.0016L81.6305 39.9258H75.4391L76.7867 33.6172H96.8648L95.4781 39.9258H89.2672L84.6383 62.1719Z" fill="#FF565C"/>
<path d="M121.424 62.1719H112.538L106.893 42.0938H106.737C106.359 45.8828 105.988 48.6042 105.623 50.2578L103.104 62.1719H96.307L102.342 33.6172H111.229L116.815 52.8164H116.991C117.368 49.7435 117.739 47.3281 118.104 45.5703L120.663 33.6172H127.459L121.424 62.1719Z" fill="#FF565C"/>
<path d="M146.062 62.1719H129.109L135.144 33.6172H152.097L150.827 39.8086H141.511L140.593 44.3008H149.265L147.859 50.4922H139.187L138.073 55.8828H147.39L146.062 62.1719Z" fill="#FF565C"/>
<path d="M171.246 53.4023C171.246 56.293 170.289 58.5456 168.375 60.1602C166.461 61.7617 163.792 62.5625 160.367 62.5625C158.935 62.5625 157.581 62.4062 156.305 62.0938C155.029 61.7682 153.928 61.2995 153.004 60.6875V53.8516C154.098 54.5417 155.348 55.1211 156.754 55.5898C158.173 56.0586 159.456 56.293 160.602 56.293C161.565 56.293 162.294 56.0911 162.789 55.6875C163.284 55.2839 163.531 54.7109 163.531 53.9688C163.531 53.6172 163.453 53.2917 163.297 52.9922C163.141 52.6797 162.919 52.3737 162.633 52.0742C162.346 51.7617 161.578 51.0846 160.328 50.043C158.805 48.819 157.698 47.569 157.008 46.293C156.318 45.0169 155.973 43.6172 155.973 42.0938C155.973 40.388 156.396 38.8581 157.242 37.5039C158.102 36.1367 159.306 35.082 160.855 34.3398C162.418 33.5846 164.163 33.207 166.09 33.207C169.202 33.207 172.001 33.9036 174.488 35.2969L171.852 41.0977C169.625 39.9518 167.73 39.3789 166.168 39.3789C165.335 39.3789 164.69 39.5612 164.234 39.9258C163.792 40.2904 163.57 40.8242 163.57 41.5273C163.57 42.1654 163.785 42.7643 164.215 43.3242C164.658 43.8711 165.491 44.6068 166.715 45.5312C168.251 46.6641 169.391 47.8555 170.133 49.1055C170.875 50.3555 171.246 51.7878 171.246 53.4023Z" fill="#FF565C"/>
<path d="M194.36 53.4023C194.36 56.293 193.403 58.5456 191.489 60.1602C189.575 61.7617 186.906 62.5625 183.481 62.5625C182.049 62.5625 180.695 62.4062 179.419 62.0938C178.143 61.7682 177.042 61.2995 176.118 60.6875V53.8516C177.212 54.5417 178.462 55.1211 179.868 55.5898C181.287 56.0586 182.57 56.293 183.716 56.293C184.679 56.293 185.408 56.0911 185.903 55.6875C186.398 55.2839 186.645 54.7109 186.645 53.9688C186.645 53.6172 186.567 53.2917 186.411 52.9922C186.255 52.6797 186.033 52.3737 185.747 52.0742C185.46 51.7617 184.692 51.0846 183.442 50.043C181.919 48.819 180.812 47.569 180.122 46.293C179.432 45.0169 179.087 43.6172 179.087 42.0938C179.087 40.388 179.51 38.8581 180.356 37.5039C181.216 36.1367 182.42 35.082 183.97 34.3398C185.532 33.5846 187.277 33.207 189.204 33.207C192.316 33.207 195.115 33.9036 197.602 35.2969L194.966 41.0977C192.739 39.9518 190.845 39.3789 189.282 39.3789C188.449 39.3789 187.804 39.5612 187.348 39.9258C186.906 40.2904 186.684 40.8242 186.684 41.5273C186.684 42.1654 186.899 42.7643 187.329 43.3242C187.772 43.8711 188.605 44.6068 189.829 45.5312C191.365 46.6641 192.505 47.8555 193.247 49.1055C193.989 50.3555 194.36 51.7878 194.36 53.4023Z" fill="#FF565C"/>
<mask id="mask0" mask-type="alpha" maskUnits="userSpaceOnUse" x="0" y="37" width="36" height="26">
<path fill-rule="evenodd" clip-rule="evenodd" d="M27.5201 37.1719L36 37.1795L30.6197 62.1719H22.1142L27.5201 37.1719ZM15.1083 43.4247L23.6063 43.4276L19.5626 62.1719H11.0571L15.1083 43.4247ZM11.2229 49.6751L2.707 49.6928L0 62.1719H8.50547L11.2229 49.6751Z" fill="#C4C4C4"/>
</mask>
<g mask="url(#mask0)">
<rect y="37.1719" width="36" height="25" fill="url(#paint0_linear)"/>
</g>
<defs>
<linearGradient id="paint0_linear" x1="36" y1="49.6719" x2="-2.45599e-07" y2="49.6719" gradientUnits="userSpaceOnUse">
<stop offset="0.0939227" stop-color="#FF565C"/>
<stop offset="1" stop-color="#8256FF" stop-opacity="0.8"/>
</linearGradient>
</defs>
</svg>
