<svg width="255" height="81" viewBox="0 0 255 81" fill="none" xmlns="http://www.w3.org/2000/svg">
<path d="M17.9859 30.0007H1.31061V0.424825H17.9859V4.51124H6.12971V12.5627H17.2399V16.6086H6.12971V25.8941H17.9859V30.0007Z" fill="#FF565C"/>
<path d="M48.937 30.0007H43.0291L28.5315 6.43307H28.3702L28.471 7.748C28.6592 10.2565 28.7533 12.5492 28.7533 14.6261V30.0007H24.3778V0.424825H30.2252L44.6825 23.8711H44.8035C44.7766 23.5609 44.7228 22.4348 44.6422 20.4928C44.5615 18.5372 44.5212 17.0132 44.5212 15.9208V0.424825H48.937V30.0007Z" fill="#FF565C"/>
<path d="M68.778 13.9585H79.626V28.8072C77.8516 29.3871 76.1445 29.7985 74.5045 30.0412C72.878 30.284 71.117 30.4053 69.2216 30.4053C64.7587 30.4053 61.3175 29.0837 58.8979 26.4403C56.4782 23.7835 55.2684 20.041 55.2684 15.2128C55.2684 10.452 56.6328 6.72977 59.3616 4.04595C62.0904 1.34865 65.8476 0 70.6331 0C73.7114 0 76.6284 0.593407 79.3841 1.78022L77.6903 5.80594C75.2976 4.70005 72.9048 4.1471 70.5121 4.1471C67.3666 4.1471 64.8797 5.13836 63.0516 7.12088C61.2234 9.1034 60.3093 11.8142 60.3093 15.2532C60.3093 18.8676 61.1293 21.6189 62.7693 23.507C64.4227 25.3816 66.7953 26.3189 69.887 26.3189C71.4463 26.3189 73.1132 26.1234 74.8876 25.7323V18.1056H68.778V13.9585Z" fill="#FF565C"/>
<path d="M105.012 30.0007L102.068 21.7875H90.7967L87.9133 30.0007H82.832L93.8615 0.303447H99.1041L110.134 30.0007H105.012ZM100.798 17.6201L98.0354 9.56868C97.8338 9.02922 97.5515 8.17957 97.1885 7.01973C96.839 5.85989 96.5971 5.01024 96.4626 4.47078C96.0997 6.12962 95.5687 7.94356 94.8697 9.91259L92.2081 17.6201H100.798Z" fill="#FF565C"/>
<path d="M126.083 13.9585H136.931V28.8072C135.157 29.3871 133.449 29.7985 131.809 30.0412C130.183 30.284 128.422 30.4053 126.527 30.4053C122.064 30.4053 118.622 29.0837 116.203 26.4403C113.783 23.7835 112.573 20.041 112.573 15.2128C112.573 10.452 113.938 6.72977 116.667 4.04595C119.395 1.34865 123.153 0 127.938 0C131.016 0 133.933 0.593407 136.689 1.78022L134.995 5.80594C132.603 4.70005 130.21 4.1471 127.817 4.1471C124.672 4.1471 122.185 5.13836 120.357 7.12088C118.528 9.1034 117.614 11.8142 117.614 15.2532C117.614 18.8676 118.434 21.6189 120.074 23.507C121.728 25.3816 124.1 26.3189 127.192 26.3189C128.751 26.3189 130.418 26.1234 132.193 25.7323V18.1056H126.083V13.9585Z" fill="#FF565C"/>
<path d="M160.704 30.0007H144.029V0.424825H160.704V4.51124H148.848V12.5627H159.958V16.6086H148.848V25.8941H160.704V30.0007Z" fill="#FF565C"/>
<path d="M53.2723 80.4943H43.4173L51.2055 43.5243H72.9318L71.2431 51.5404H59.3717L57.9099 58.5955H68.8991L67.1599 66.6621H56.1204L53.2723 80.4943Z" fill="#FF565C"/>
<path d="M74.3039 80.4943L82.0921 43.5243H92.0983L84.3101 80.4943H74.3039Z" fill="#FF565C"/>
<path d="M109.223 80.4943H99.3683L105.342 51.6921H97.3519L99.091 43.5243H125.001L123.212 51.6921H115.197L109.223 80.4943Z" fill="#FF565C"/>
<path d="M156.694 80.4943H145.226L137.942 54.499H137.741C137.253 59.4047 136.774 62.9281 136.304 65.0691L133.053 80.4943H124.281L132.07 43.5243H143.538L150.746 68.3817H150.973C151.46 64.4032 151.939 61.276 152.41 59.0001L155.711 43.5243H164.483L156.694 80.4943Z" fill="#FF565C"/>
<path d="M188.488 80.4943H166.611L174.399 43.5243H196.277L194.638 51.5404H182.616L181.431 57.3565H192.622L190.807 65.3725H179.616L178.18 72.3518H190.202L188.488 80.4943Z" fill="#FF565C"/>
<path d="M220.988 69.1403C220.988 72.8828 219.753 75.7993 217.283 77.8897C214.813 79.9632 211.368 81 206.949 81C205.101 81 203.353 80.7977 201.707 80.3931C200.06 79.9717 198.64 79.3648 197.447 78.5724V69.7219C198.859 70.6154 200.472 71.3656 202.286 71.9725C204.118 72.5794 205.773 72.8828 207.252 72.8828C208.495 72.8828 209.436 72.6215 210.075 72.0989C210.713 71.5763 211.032 70.8345 211.032 69.8736C211.032 69.4185 210.931 68.997 210.73 68.6093C210.528 68.2047 210.243 67.8085 209.873 67.4208C209.503 67.0162 208.512 66.1395 206.899 64.7909C204.933 63.2062 203.505 61.5878 202.614 59.9357C201.723 58.2837 201.278 56.4714 201.278 54.499C201.278 52.2906 201.824 50.3098 202.916 48.5565C204.025 46.7864 205.58 45.4209 207.579 44.46C209.596 43.4822 211.847 42.9933 214.334 42.9933C218.35 42.9933 221.963 43.8952 225.172 45.699L221.769 53.2094C218.896 51.7258 216.451 50.9841 214.435 50.9841C213.36 50.9841 212.528 51.2201 211.94 51.6921C211.368 52.1641 211.083 52.8553 211.083 53.7657C211.083 54.5917 211.36 55.3672 211.914 56.0921C212.486 56.8001 213.561 57.7526 215.141 58.9495C217.123 60.4162 218.594 61.9587 219.551 63.5771C220.509 65.1955 220.988 67.0499 220.988 69.1403Z" fill="#FF565C"/>
<path d="M250.816 69.1403C250.816 72.8828 249.581 75.7993 247.111 77.8897C244.641 79.9632 241.196 81 236.777 81C234.929 81 233.181 80.7977 231.535 80.3931C229.888 79.9717 228.468 79.3648 227.275 78.5724V69.7219C228.687 70.6154 230.3 71.3656 232.114 71.9725C233.946 72.5794 235.601 72.8828 237.08 72.8828C238.323 72.8828 239.264 72.6215 239.903 72.0989C240.541 71.5763 240.86 70.8345 240.86 69.8736C240.86 69.4185 240.759 68.997 240.558 68.6093C240.356 68.2047 240.071 67.8085 239.701 67.4208C239.331 67.0162 238.34 66.1395 236.727 64.7909C234.761 63.2062 233.333 61.5878 232.442 59.9357C231.551 58.2837 231.106 56.4714 231.106 54.499C231.106 52.2906 231.652 50.3098 232.744 48.5565C233.853 46.7864 235.408 45.4209 237.407 44.46C239.424 43.4822 241.675 42.9933 244.162 42.9933C248.178 42.9933 251.791 43.8952 255 45.699L251.597 53.2094C248.724 51.7258 246.279 50.9841 244.263 50.9841C243.188 50.9841 242.356 51.2201 241.768 51.6921C241.196 52.1641 240.911 52.8553 240.911 53.7657C240.911 54.5917 241.188 55.3672 241.742 56.0921C242.314 56.8001 243.389 57.7526 244.969 58.9495C246.951 60.4162 248.422 61.9587 249.379 63.5771C250.337 65.1955 250.816 67.0499 250.816 69.1403Z" fill="#FF565C"/>
<mask id="mask0" mask-type="alpha" maskUnits="userSpaceOnUse" x="0" y="48" width="47" height="33">
<path fill-rule="evenodd" clip-rule="evenodd" d="M35.5139 48.1266L46.4569 48.1365L39.5138 80.4942H28.5378L35.5139 48.1266ZM19.4968 56.2222L30.4633 56.2259L25.2449 80.4942H14.2689L19.4968 56.2222ZM14.4829 64.3146L3.4933 64.3376L0 80.4943H10.9761L14.4829 64.3146Z" fill="#C4C4C4"/>
</mask>
<g mask="url(#mask0)">
<rect y="48.1266" width="46.4569" height="32.3676" fill="url(#paint0_linear)"/>
</g>
<defs>
<linearGradient id="paint0_linear" x1="46.4569" y1="64.3104" x2="-3.16938e-07" y2="64.3104" gradientUnits="userSpaceOnUse">
<stop offset="0.0939227" stop-color="#FF565C"/>
<stop offset="1" stop-color="#8256FF" stop-opacity="0.8"/>
</linearGradient>
</defs>
</svg>
