<svg width="34" height="41" viewBox="0 0 34 41" fill="none" xmlns="http://www.w3.org/2000/svg">
<path fill-rule="evenodd" clip-rule="evenodd" d="M3.82324 0.996152C2.27351 0.996152 1.01237 2.23779 1.01237 3.76413V36.7815C1.01237 38.3078 2.27351 39.5489 3.82324 39.5489H29.3254C30.8757 39.5489 32.1363 38.3078 32.1363 36.7815V3.76413C32.1363 2.23779 30.8757 0.996152 29.3254 0.996152H3.82324ZM3.82324 40.5456C1.71538 40.5456 0 38.8573 0 36.7815V3.76413C0 1.68829 1.71538 0 3.82324 0H29.3254C31.4338 0 33.1486 1.68829 33.1486 3.76413V36.7815C33.1486 38.8573 31.4338 40.5456 29.3254 40.5456H3.82324Z" fill="#56FFE1"/>
<path fill-rule="evenodd" clip-rule="evenodd" d="M10.0302 7.00316L12.3961 12.8261C13.7328 12.3368 15.136 12.089 16.5743 12.089C18.0132 12.089 19.4163 12.3368 20.7525 12.8261L23.1184 7.00316C21.216 5.6115 18.9615 4.87789 16.5743 4.87789C14.1871 4.87789 11.9326 5.6115 10.0302 7.00316ZM21.0353 13.9705C20.9684 13.9705 20.9014 13.9575 20.8385 13.9313C19.485 13.3699 18.0502 13.0852 16.5743 13.0852C15.0985 13.0852 13.6636 13.3699 12.3101 13.9313C12.1848 13.9836 12.044 13.9836 11.9182 13.9319C11.7929 13.8808 11.6942 13.7819 11.6435 13.6574L8.9486 7.02362C8.86548 6.81905 8.9284 6.58549 9.10328 6.44854C11.2469 4.76935 13.8304 3.88116 16.5743 3.88116C19.3188 3.88116 21.9023 4.76935 24.0453 6.44854C24.2202 6.58549 24.2831 6.81905 24.2006 7.02362L21.5052 13.6574C21.4544 13.7819 21.3557 13.8808 21.2304 13.9319C21.1681 13.958 21.1017 13.9705 21.0353 13.9705Z" fill="#56FFE1"/>
<path fill-rule="evenodd" clip-rule="evenodd" d="M16.5744 11.5429C16.3504 11.5429 16.1461 11.3963 16.0855 11.1736L14.6991 6.07974C14.627 5.81436 14.7874 5.54103 15.057 5.46943C15.3271 5.3984 15.6047 5.55637 15.6768 5.82232L17.0632 10.9156C17.1354 11.1815 16.9755 11.4549 16.7054 11.5259C16.6615 11.5373 16.6176 11.5429 16.5744 11.5429Z" fill="#56FFE1"/>
<path fill-rule="evenodd" clip-rule="evenodd" d="M17.3778 11.0446C17.3778 11.4816 17.0182 11.8356 16.5744 11.8356C16.1305 11.8356 15.7709 11.4816 15.7709 11.0446C15.7709 10.6076 16.1305 10.2536 16.5744 10.2536C17.0182 10.2536 17.3778 10.6076 17.3778 11.0446Z" fill="#56FFE1"/>
<path fill-rule="evenodd" clip-rule="evenodd" d="M8.78187 19.5008C7.33892 19.5008 6.16551 20.6566 6.16551 22.0773V31.7478C6.16551 33.1685 7.33892 34.3243 8.78187 34.3243H23.9606C25.4035 34.3243 26.5775 33.1685 26.5775 31.7478V22.0773C26.5775 20.6566 25.4035 19.5008 23.9606 19.5008H8.78187ZM23.9606 35.3205H8.78187C6.78079 35.3205 5.15314 33.718 5.15314 31.7478V22.0773C5.15314 20.1071 6.78079 18.5046 8.78187 18.5046H23.9606C25.9616 18.5046 27.5893 20.1071 27.5893 22.0773V31.7478C27.5893 33.718 25.9616 35.3205 23.9606 35.3205Z" fill="#56FFE1"/>
</svg>
