<svg width="40" height="40" viewBox="0 0 40 40" fill="none" xmlns="http://www.w3.org/2000/svg">
<rect width="40" height="40" rx="2" fill="#DB4437"/>
<path d="M20.2857 18.9554H29.9955C30.1027 19.5536 30.1563 20.125 30.1563 20.6696C30.1563 22.6071 29.75 24.3393 28.9375 25.8661C28.125 27.3839 26.9643 28.5714 25.4554 29.4286C23.9554 30.2857 22.2321 30.7143 20.2857 30.7143C18.8839 30.7143 17.5491 30.442 16.2812 29.8973C15.0134 29.3616 13.9196 28.6339 13 27.7143C12.0804 26.7946 11.3482 25.7009 10.8036 24.433C10.2679 23.1652 10 21.8304 10 20.4286C10 19.0268 10.2679 17.692 10.8036 16.4241C11.3482 15.1562 12.0804 14.0625 13 13.1429C13.9196 12.2232 15.0134 11.4955 16.2812 10.9598C17.5491 10.4152 18.8839 10.1429 20.2857 10.1429C22.9643 10.1429 25.2634 11.0402 27.183 12.8348L24.3839 15.5268C23.2857 14.4643 21.9196 13.933 20.2857 13.933C19.1339 13.933 18.067 14.2232 17.0848 14.8036C16.1116 15.3839 15.3393 16.1741 14.7679 17.1741C14.1964 18.1652 13.9107 19.25 13.9107 20.4286C13.9107 21.6071 14.1964 22.6964 14.7679 23.6964C15.3393 24.6875 16.1116 25.4732 17.0848 26.0536C18.067 26.6339 19.1339 26.9241 20.2857 26.9241C21.0625 26.9241 21.7768 26.817 22.4286 26.6027C23.0804 26.3884 23.6161 26.1205 24.0357 25.7991C24.4554 25.4777 24.8214 25.1116 25.1339 24.7009C25.4464 24.2902 25.6741 23.9018 25.817 23.5357C25.9688 23.1696 26.0714 22.8214 26.125 22.4911H20.2857V18.9554Z" fill="white"/>
</svg>
