<svg width="40" height="40" viewBox="0 0 40 40" fill="none" xmlns="http://www.w3.org/2000/svg">
<path fill-rule="evenodd" clip-rule="evenodd" d="M13.4109 25.4615H11.0461C10.4376 25.4615 9.94278 24.9638 9.94278 24.3521V22.5303H9.62073C8.72692 22.5303 8 21.7987 8 20.8995V19.5624C8 18.6633 8.72692 17.9317 9.62073 17.9317H9.94278V16.1098C9.94278 15.4977 10.4376 15 11.0461 15H13.4109C14.0191 15 14.5138 15.4977 14.5138 16.1098V18.4203H25.4858V16.1098C25.4858 15.4977 25.9806 15 26.5891 15H28.954C29.5621 15 30.0572 15.4977 30.0572 16.1098V17.9317H30.3789C31.2727 17.9317 32 18.6633 32 19.5624V20.8995C32 21.7987 31.2727 22.5303 30.3789 22.5303H30.0572V24.3521C30.0572 24.9638 29.5621 25.4615 28.954 25.4615H26.5891C25.9806 25.4615 25.4858 24.9638 25.4858 24.3521V22.0416H14.5138V24.3521C14.5138 24.9638 14.0191 25.4615 13.4109 25.4615Z" fill="#FF565C"/>
<circle cx="20" cy="20" r="19" stroke="#FF565C" stroke-width="2"/>
</svg>
